<?xml version="1.0" encoding="UTF-8" standalone="no"?>
<!-- Created with Inkscape (http://www.inkscape.org/) -->

<svg
   width="32"
   height="32"
   viewBox="0 0 8.4666659 8.4666659"
   version="1.1"
   id="svg1251"
   inkscape:export-filename="/Users/ejk/Projekte/eineruntervielen/public/favicon.ico"
   inkscape:export-xdpi="96.119087"
   inkscape:export-ydpi="96.119087"
   inkscape:version="1.1.1 (c3084ef, 2021-09-22)"
   sodipodi:docname="favicon.svg"
   xmlns:inkscape="http://www.inkscape.org/namespaces/inkscape"
   xmlns:sodipodi="http://sodipodi.sourceforge.net/DTD/sodipodi-0.dtd"
   xmlns="http://www.w3.org/2000/svg"
   xmlns:svg="http://www.w3.org/2000/svg">
  <sodipodi:namedview
     id="namedview1253"
     pagecolor="#ffffff"
     bordercolor="#666666"
     borderopacity="1.0"
     inkscape:pageshadow="2"
     inkscape:pageopacity="0.0"
     inkscape:pagecheckerboard="0"
     inkscape:document-units="px"
     showgrid="false"
     width="32mm"
     units="px"
     inkscape:zoom="10.259959"
     inkscape:cx="13.791478"
     inkscape:cy="12.621883"
     inkscape:window-width="1383"
     inkscape:window-height="847"
     inkscape:window-x="57"
     inkscape:window-y="25"
     inkscape:window-maximized="1"
     inkscape:current-layer="layer1"
     inkscape:snap-text-baseline="false" />
  <defs
     id="defs1248" />
  <g
     inkscape:label="Ebene 1"
     inkscape:groupmode="layer"
     id="layer1">
    <path
       style="fill:#141414;fill-opacity:1;stroke-width:0.0169691"
       d="M 4.2797294,0.005697 8.5078166,0.00888764 8.4956387,1.2079999 c -0.0067,0.6595116 -0.013206,2.5608923 -0.014462,4.2252902 l -0.00228,3.0261776 -4.2168139,-0.00318 -4.21681374,-0.00318 0.0031885,-4.2252984 0.0031885,-4.22529874 z"
       id="path4638"
       inkscape:export-filename="/Users/ejk/Projekte/eineruntervielen/public/favicon.ico"
       inkscape:export-xdpi="96.119087"
       inkscape:export-ydpi="96.119087" />
    <path
       style="fill:#464646;fill-opacity:1;stroke-width:0.0169691"
       d="m 1.4281966,4.0823183 c 0.012452,-0.012434 0.056145,-0.2875135 0.047813,-0.3010178 -0.00459,-0.00745 -0.00146,-0.017799 0.00698,-0.023001 0.00843,-0.0052 0.020241,-0.038174 0.026242,-0.073271 C 1.536046,3.5282052 1.6356397,3.2464527 1.7386629,3.0359475 1.8003037,2.9099986 1.8548455,2.8031346 1.8598673,2.7984719 1.8807158,2.7791148 2.080152,2.5071321 2.0813725,2.4963936 c 0.00238,-0.020977 0.3099025,-0.2895688 0.4316773,-0.377034 0.065366,-0.04695 0.1303091,-0.094769 0.1443173,-0.1062639 0.014008,-0.011496 0.052204,-0.031541 0.084879,-0.044545 0.032676,-0.013003 0.1205213,-0.054261 0.1952136,-0.091682 0.074692,-0.037421 0.1434413,-0.069684 0.1527759,-0.071696 0.00933,-0.002 0.097587,-0.027118 0.1961177,-0.055791 0.6688171,-0.1946312 1.574167,-0.1901816 2.2389789,0.011 0.568717,0.1721054 0.9982707,0.4577491 1.3434831,0.8933864 0.057351,0.072374 0.1092527,0.1315928 0.1153363,0.1315973 0.00608,4.6e-6 0.011407,0.00956 0.011832,0.021221 4.146e-4,0.011666 0.039868,0.086148 0.087653,0.1655146 0.047784,0.079366 0.099301,0.1767653 0.1144812,0.216442 0.015181,0.039677 0.035472,0.072146 0.045093,0.072153 0.00962,7.2e-6 0.013081,0.00442 0.00769,0.0098 -0.00539,0.00539 0.01208,0.074683 0.038825,0.1540004 0.043812,0.1299366 0.1113301,0.4052795 0.1263083,0.5150934 0.014298,0.1048287 0.00744,0.8186517 -0.00895,0.9316937 -0.023524,0.1622344 -0.074616,0.3606299 -0.1362835,0.5292066 -0.02697,0.073726 -0.044567,0.1340501 -0.039106,0.1340542 0.00546,4.2e-6 -0.00133,0.013363 -0.015106,0.029685 -0.01377,0.016323 -0.058293,0.086923 -0.098938,0.1568891 -0.040647,0.069969 -0.091724,0.1508278 -0.1135048,0.1796914 -0.021781,0.028864 -0.039605,0.05658 -0.039608,0.06158 -1.33e-5,0.01765 -0.2835835,0.2852101 -0.3746832,0.3535234 -0.1295957,0.097182 -0.3004188,0.1949384 -0.4445817,0.2544236 -0.067659,0.027919 -0.1421129,0.059323 -0.1654533,0.069775 -0.023339,0.010462 -0.057315,0.021747 -0.0755,0.025083 -0.018184,0.00329 -0.079285,0.01802 -0.135777,0.032647 -0.1535786,0.039744 -0.3287961,0.073062 -0.4336541,0.082463 -0.2105643,0.018881 -0.6650274,0.041498 -0.8357586,0.041589 l -0.1824176,1.014e-4 0.00161,-2.1388665 0.00161,-2.1388718 -0.055157,0.00893 c -0.030336,0.00491 -0.1096421,0.012937 -0.176236,0.017832 -0.1613784,0.011861 -0.2474164,0.0238 -0.3795545,0.052671 -0.060674,0.013255 -0.1286975,0.028109 -0.1511621,0.033006 -0.1406731,0.030667 -0.4928689,0.2006545 -0.5737905,0.2769403 -0.020624,0.019441 -0.043947,0.035345 -0.05183,0.035339 -0.024457,-1.85e-5 -0.3436932,0.3393863 -0.3437129,0.3654274 -1.02e-5,0.013531 -0.00766,0.024595 -0.016987,0.024588 -0.00933,-7e-6 -0.016978,0.011441 -0.016988,0.02544 -1.06e-5,0.013999 -0.00691,0.025448 -0.015328,0.025441 -0.00842,-6.3e-6 -0.023878,0.020982 -0.034352,0.046639 -0.010473,0.025657 -0.03019,0.065732 -0.043814,0.089055 -0.037455,0.064119 -0.1086777,0.2317133 -0.1169892,0.2752904 -0.00405,0.021198 -0.01479,0.057628 -0.02388,0.080954 -0.00909,0.023327 -0.016822,0.046228 -0.01718,0.050894 -3.58e-4,0.00467 -0.00503,0.027571 -0.010379,0.050899 -0.04032,0.1758 -0.052758,0.3361991 -0.052631,0.6787236 9.46e-5,0.2568917 0.00703,0.3484563 0.038143,0.5039712 0.1008419,0.5039699 0.2973826,0.9818843 0.569335,1.3844106 0.036394,0.053867 0.061284,0.1028223 0.055313,0.1087848 -0.00597,0.006 -0.2360531,0.014392 -0.5112911,0.018724 L 1.8910311,6.7061352 1.8562225,6.624759 C 1.7954876,6.4827751 1.6738989,6.1366932 1.6112585,5.9275129 1.5779774,5.8163747 1.5460646,5.7139866 1.5403412,5.6999833 1.5346217,5.685979 1.528326,5.6630642 1.5263616,5.6490628 1.5243922,5.6350613 1.5062104,5.5446828 1.4859481,5.4482205 1.465682,5.3517162 1.4415625,5.1760679 1.4323437,5.0578488 1.4167546,4.8579247 1.4135178,4.0969684 1.4281899,4.0823135 Z m 3.6570587,1.8167882 c 0.021003,-0.00428 0.099151,-0.012465 0.1736653,-0.018229 C 5.8224458,5.8373228 6.2821717,5.5749772 6.4872594,5.1799082 6.5277754,5.1018597 6.5805401,4.9644498 6.6045137,4.8745532 6.6446282,4.7241289 6.648206,4.6820321 6.6494054,4.3462701 6.6506445,4.0014337 6.6482077,3.9722195 6.6051686,3.8132893 6.5450521,3.5913246 6.4410947,3.379122 6.305122,3.2008187 6.2761956,3.1628869 6.1028805,2.9898906 6.0649961,2.9611343 5.8655772,2.8097648 5.6054049,2.669572 5.4718019,2.6414932 5.4495514,2.6368164 5.3893541,2.621339 5.3380338,2.6070973 5.2867126,2.5928556 5.2008197,2.5761917 5.1471597,2.5700652 l -0.097564,-0.011139 -0.00126,1.6739686 -0.00126,1.6739685 z"
       id="path5681"
       inkscape:export-filename="/Users/ejk/Projekte/eineruntervielen/public/favicon.ico"
       inkscape:export-xdpi="96.119087"
       inkscape:export-ydpi="96.119087" />
  </g>
</svg>
